<svg id="visual" viewBox="0 0 1600 1600" width="1600" height="1600" xmlns="http://www.w3.org/2000/svg" xmlns:xlink="http://www.w3.org/1999/xlink" version="1.1"><path d="M0 1471L33.3 1448.7C66.7 1426.3 133.3 1381.7 200 1333.5C266.7 1285.3 333.3 1233.7 400 1199.7C466.7 1165.7 533.3 1149.3 600 1179.5C666.7 1209.7 733.3 1286.3 800 1346.7C866.7 1407 933.3 1451 1000 1419.5C1066.7 1388 1133.3 1281 1200 1239.3C1266.7 1197.7 1333.3 1221.3 1400 1231.8C1466.7 1242.3 1533.3 1239.7 1566.7 1238.3L1600 1237L1600 1601L1566.7 1601C1533.3 1601 1466.7 1601 1400 1601C1333.3 1601 1266.7 1601 1200 1601C1133.3 1601 1066.7 1601 1000 1601C933.3 1601 866.7 1601 800 1601C733.3 1601 666.7 1601 600 1601C533.3 1601 466.7 1601 400 1601C333.3 1601 266.7 1601 200 1601C133.3 1601 66.7 1601 33.3 1601L0 1601Z" fill="#E3E6F3" stroke-linecap="round" stroke-linejoin="miter"></path></svg>