<?xml version="1.0" standalone="no"?>
<svg xmlns:xlink="http://www.w3.org/1999/xlink" id="wave" style="transform:rotate(0deg); transition: 0.3s" viewBox="0 0 1440 260" version="1.1" xmlns="http://www.w3.org/2000/svg"><defs><linearGradient id="sw-gradient-0" x1="0" x2="0" y1="1" y2="0"><stop stop-color="rgba(109.57, 88.939, 82.313, 1)" offset="0%"/><stop stop-color="rgba(150.552, 125.65, 70.601, 1)" offset="100%"/></linearGradient></defs><path style="transform:translate(0, 0px); opacity:1" fill="url(#sw-gradient-0)" d="M0,78L40,65C80,52,160,26,240,34.7C320,43,400,87,480,121.3C560,156,640,182,720,182C800,182,880,156,960,125.7C1040,95,1120,61,1200,65C1280,69,1360,113,1440,143C1520,173,1600,191,1680,169C1760,147,1840,87,1920,86.7C2000,87,2080,147,2160,164.7C2240,182,2320,156,2400,134.3C2480,113,2560,95,2640,99.7C2720,104,2800,130,2880,130C2960,130,3040,104,3120,86.7C3200,69,3280,61,3360,56.3C3440,52,3520,52,3600,43.3C3680,35,3760,17,3840,34.7C3920,52,4000,104,4080,104C4160,104,4240,52,4320,34.7C4400,17,4480,35,4560,43.3C4640,52,4720,52,4800,78C4880,104,4960,156,5040,164.7C5120,173,5200,139,5280,108.3C5360,78,5440,52,5520,43.3C5600,35,5680,43,5720,47.7L5760,52L5760,260L5720,260C5680,260,5600,260,5520,260C5440,260,5360,260,5280,260C5200,260,5120,260,5040,260C4960,260,4880,260,4800,260C4720,260,4640,260,4560,260C4480,260,4400,260,4320,260C4240,260,4160,260,4080,260C4000,260,3920,260,3840,260C3760,260,3680,260,3600,260C3520,260,3440,260,3360,260C3280,260,3200,260,3120,260C3040,260,2960,260,2880,260C2800,260,2720,260,2640,260C2560,260,2480,260,2400,260C2320,260,2240,260,2160,260C2080,260,2000,260,1920,260C1840,260,1760,260,1680,260C1600,260,1520,260,1440,260C1360,260,1280,260,1200,260C1120,260,1040,260,960,260C880,260,800,260,720,260C640,260,560,260,480,260C400,260,320,260,240,260C160,260,80,260,40,260L0,260Z"/></svg>